Patient4_TMGait_0pt4_03_right_08_GRF.mot
version=1
nRows=26
nColumns=19
inDegrees=no
endheader
time	F1x	F1y	F1z	M1x	M1y	M1z	F2x	F2y	F2z	M2x	M2y	M2z	EC1x	EC1y	EC1z	EC2x	EC2y	EC2z
9.4	1.7542	740.9934	73.184	-248.9463	-77.3955	808.8497	9.3392	-5.3147	4.0615	-2.015	-4.4577	-12.0668	-0.0592	0.0182	-0.0073	-0.0462	0.0165	0.9585
9.4136	-1.6436	737.7851	71.705	-247.3662	-76.0818	800.4222	5.9948	-3.0286	2.7274	-1.1265	-2.9156	-7.3775	-0.0592	0.0182	-0.0073	-0.0462	0.0165	0.9585
9.4271	-4.4503	735.2042	70.3476	-245.9379	-74.753	792.7794	3.2785	-1.0424	1.5841	-0.35697	-1.6345	-3.3997	-0.0592	0.0182	-0.0073	-0.0462	0.0165	0.9585
9.4407	-6.4638	733.9641	69.1954	-244.9667	-73.482	786.855	1.2946	0.51903	0.70256	0.24629	-0.6764	-0.35049	-0.0592	0.0182	-0.0073	-0.0462	0.0165	0.9585
9.4543	-7.6555	734.656	68.2993	-244.7225	-72.3235	783.2855	-0.036032	1.657	0.086177	0.6802	-0.019696	1.8118	-0.0592	0.0182	-0.0073	-0.0462	0.0165	0.9585
9.4679	-8.0483	737.6013	67.5834	-245.3813	-71.2041	782.2926	-0.82269	2.3876	-0.30179	0.95379	0.38923	3.1649	-0.0592	0.0182	-0.0073	-0.0462	0.0165	0.9585
9.4814	-7.6987	742.7623	66.9673	-246.9829	-70.0394	783.6862	-1.2323	2.7737	-0.51439	1.0902	0.62442	3.8739	-0.0592	0.0182	-0.0073	-0.0462	0.0165	0.9585
9.495	-6.6636	749.7621	66.2885	-249.4386	-68.6664	786.9304	-1.3924	2.8514	-0.61076	1.1047	0.75209	4.0576	-0.0592	0.0182	-0.0073	-0.0462	0.0165	0.9585
9.5086	-5.022	757.9273	65.4297	-252.5321	-66.9656	791.2224	-1.4146	2.6111	-0.6387	0.99835	0.82299	3.7699	-0.0592	0.0182	-0.0073	-0.0462	0.0165	0.9585
9.5221	-2.8532	766.3104	64.295	-255.9251	-64.8401	795.5196	-1.3985	2.0271	-0.63571	0.7632	0.87811	3.0329	-0.0592	0.0182	-0.0073	-0.0462	0.0165	0.9585
9.5357	-0.254	773.7547	62.8674	-259.1877	-62.2794	798.6277	-1.3629	1.0352	-0.63168	0.37848	0.93497	1.7899	-0.0592	0.0182	-0.0073	-0.0462	0.0165	0.9585
9.5493	2.6813	779.1417	61.1597	-261.8888	-59.3059	799.4436	-1.3423	-0.4083	-0.64331	-0.17093	1.0032	0.018959	-0.0592	0.0182	-0.0073	-0.0462	0.0165	0.9585
9.5629	5.8941	781.645	59.2258	-263.6859	-55.9792	797.1955	-1.3089	-2.3326	-0.66461	-0.89151	1.0571	-2.3092	-0.0592	0.0182	-0.0073	-0.0462	0.0165	0.9585
9.5764	9.3333	780.8582	57.1617	-264.3695	-52.4035	791.5715	-1.2098	-4.6488	-0.67211	-1.7513	1.047	-5.0847	-0.0592	0.0182	-0.0073	-0.0462	0.0165	0.9585
9.59	12.9686	776.7692	55.1531	-263.8583	-48.7783	782.6693	-0.96728	-7.1054	-0.6231	-2.6591	0.8961	-8.0077	-0.0592	0.0182	-0.0073	-0.0462	0.0165	0.9585
9.6036	16.7366	769.7447	53.4587	-262.2036	-45.3916	770.9765	-0.46292	-9.2331	-0.45611	-3.4383	0.49663	-10.5317	-0.0592	0.0182	-0.0073	-0.0462	0.0165	0.9585
9.6171	20.5767	760.4736	52.3325	-259.5845	-42.5333	757.2885	0.40348	-10.1962	-0.10173	-3.779	-0.26183	-11.6714	-0.0592	0.0182	-0.0073	-0.0462	0.0165	0.9585
9.6307	24.4155	749.8136	51.9247	-256.2679	-40.3987	742.5528	1.7642	-8.7598	0.51068	-3.219	-1.4912	-9.9957	-0.0592	0.0182	-0.0073	-0.0462	0.0165	0.9585
9.6443	28.1774	738.5725	52.2383	-252.5279	-39.0402	727.6456	3.6899	-3.2434	1.4399	-1.1306	-3.2645	-3.5431	-0.0592	0.0182	-0.0073	-0.0462	0.0165	0.9585
9.6579	31.7989	727.1844	53.1417	-248.5301	-38.3683	713.035	6.1678	8.3972	2.7179	3.2506	-5.5908	10.0701	-0.0592	0.0182	-0.0073	-0.0462	0.0165	0.9585
9.6714	35.158	715.4833	54.4033	-244.2481	-38.2078	698.6113	9.0445	28.3639	4.3044	10.7443	-8.3425	33.4105	-0.0592	0.0182	-0.0073	-0.0462	0.0165	0.9585
9.685	38.114	702.6422	55.7096	-239.4401	-38.3108	683.6221	11.8908	58.5785	6.0578	22.0616	-11.1736	68.7255	-0.0592	0.0182	-0.0073	-0.0462	0.0165	0.9585
9.6986	40.5006	687.3337	56.6847	-233.6987	-38.3754	666.8248	13.9388	99.8875	7.6613	37.5117	-13.4149	116.9942	-0.0592	0.0182	-0.0073	-0.0462	0.0165	0.9585
9.7121	42.1367	668.0601	56.9276	-226.5613	-38.0791	646.8122	13.9722	151.0236	8.562	56.6066	-13.9784	176.7358	-0.0592	0.0182	-0.0073	-0.0462	0.0165	0.9585
9.7257	42.858	643.551	56.0823	-217.6509	-37.1315	622.3628	10.865	207.6268	7.9612	77.673	-11.5585	242.898	-0.0592	0.0182	-0.0073	-0.0462	0.0165	0.9585
9.7393	42.5931	613.3156	53.9236	-206.8559	-35.3385	592.9729	4.8391	262.2778	5.1061	97.8921	-5.4949	306.8656	-0.0592	0.0182	-0.0073	-0.0462	0.0165	0.9585
